<svg version="1.1" viewBox="0.0 0.0 960.0 540.0" fill="none" stroke="none" stroke-linecap="square" stroke-miterlimit="10" xmlns:xlink="http://www.w3.org/1999/xlink" xmlns="http://www.w3.org/2000/svg"><clipPath id="g9136c3e8d9_2_75.0"><path d="m0 0l960.0 0l0 540.0l-960.0 0l0 -540.0z" clip-rule="nonzero"/></clipPath><g clip-path="url(#g9136c3e8d9_2_75.0)"><path fill="#ffffff" d="m0 0l960.0 0l0 540.0l-960.0 0z" fill-rule="evenodd"/><path fill="#000000" fill-opacity="0.0" d="m19.004877 108.624084l0 0c0 -43.741867 35.459785 -79.20165 79.20165 -79.20165l760.7519 0c21.005554 0 41.150818 8.344435 56.00403 23.197626c14.853149 14.853191 23.197632 34.99844 23.197632 56.004025l0 316.7971c0 43.741882 -35.45984 79.20166 -79.20166 79.20166l-760.7519 0c-43.741863 0 -79.20165 -35.459778 -79.20165 -79.20166z" fill-rule="evenodd"/><path stroke="#000000" stroke-width="3.0" stroke-miterlimit="800.0" stroke-linecap="butt" d="m19.004877 108.624084l0 0c0 -43.741867 35.459785 -79.20165 79.20165 -79.20165l760.7519 0c21.005554 0 41.150818 8.344435 56.00403 23.197626c14.853149 14.853191 23.197632 34.99844 23.197632 56.004025l0 316.7971c0 43.741882 -35.45984 79.20166 -79.20166 79.20166l-760.7519 0c-43.741863 0 -79.20165 -35.459778 -79.20165 -79.20166z" fill-rule="evenodd"/><path fill="#000000" d="m546.2752 310.46515q0 0.6875 -0.34375 1.21875q-0.34375 0.53125 -1.3125 0.875q-0.96875 0.34375 -2.65625 0.53125q-1.6875 0.1875 -4.25 0.1875q-4.0625 0 -5.84375 -0.3125q-1.78125 -0.3125 -2.5625 -0.9375q-0.78125 -0.625 -1.21875 -1.5l-24.43753 -38.375l0 38.375q0 0.6875 -0.375 1.1875q-0.375 0.5 -1.3125 0.84375q-0.9375 0.34375 -2.5 0.53125q-1.5625 0.1875 -4.0 0.1875q-2.375 0 -3.96875 -0.1875q-1.59375 -0.1875 -2.53125 -0.53125q-0.9375 -0.34375 -1.34375 -0.84375q-0.40625 -0.5 -0.40625 -1.1875l0 -76.1875q0 -0.6875 0.40625 -1.1875q0.40625 -0.5 1.34375 -0.8125q0.9375 -0.3125 2.53125 -0.5q1.59375 -0.1875 3.96875 -0.1875q2.4375 0 4.0 0.1875q1.5625 0.1875 2.5 0.5q0.9375 0.3125 1.3125 0.8125q0.375 0.5 0.375 1.1875l0 34.4375l23.68753 -34.375q0.4375 -0.8125 1.0625 -1.34375q0.625 -0.53125 1.625 -0.84375q1.0 -0.3125 2.5625 -0.4375q1.5625 -0.125 4.0 -0.125q2.5 0 4.125 0.1875q1.625 0.1875 2.59375 0.53125q0.96875 0.34375 1.34375 0.84375q0.375 0.5 0.375 1.125q0 1.0625 -0.5625 2.1875q-0.5625 1.125 -2.125 3.5625l-22.1875 29.0625l24.1875 36.5625q1.375 2.5625 1.65625 3.40625q0.28125 0.84375 0.28125 1.34375zm77.1875 -3.6875q0.75 2.25 0.9375 3.5625q0.1875 1.3125 -0.5 1.96875q-0.6875 0.65625 -2.4375 0.8125q-1.75 0.15625 -4.8125 0.15625q-3.1875 0 -4.96875 -0.09375q-1.78125 -0.09375 -2.71875 -0.375q-0.9375 -0.28125 -1.3125 -0.78125q-0.375 -0.5 -0.625 -1.3125l-5.4375 -16.25l-30.375 0l-5.125 15.8125q-0.25 0.875 -0.65625 1.46875q-0.40625 0.59375 -1.3125 0.9375q-0.90625 0.34375 -2.5625 0.46875q-1.65625 0.125 -4.34375 0.125q-2.875 0 -4.5 -0.1875q-1.625 -0.1875 -2.25 -0.90625q-0.625 -0.71875 -0.4375 -2.03125q0.1875 -1.3125 0.9375 -3.5l24.9375 -71.75q0.375 -1.0625 0.875 -1.71875q0.5 -0.65625 1.59375 -1.0q1.09375 -0.34375 3.03125 -0.4375q1.9375 -0.09375 5.125 -0.09375q3.6875 0 5.875 0.09375q2.1875 0.09375 3.40625 0.4375q1.21875 0.34375 1.75 1.03125q0.53125 0.6875 0.90625 1.875l25.0 71.6875zm-37.125 -59.3125l-0.0625 0l-11.4375 34.375l22.9375 0l-11.4375 -34.375zm75.125 34.0q0 3.625 -0.6875 5.0625q-0.6875 1.4375 -2.1875 1.4375l-26.0 0q-1.5625 0 -2.25 -1.46875q-0.6875 -1.46875 -0.6875 -5.03125q0 -3.5 0.6875 -4.9375q0.6875 -1.4375 2.25 -1.4375l26.0 0q0.75 0 1.28125 0.3125q0.53125 0.3125 0.90625 1.0625q0.375 0.75 0.53125 2.0q0.15625 1.25 0.15625 3.0zm79.1875 25.6875q0 1.4375 -0.5 2.5625q-0.5 1.125 -1.34375 1.875q-0.84375 0.75 -2.0 1.09375q-1.15625 0.34375 -2.34375 0.34375l-7.0 0q-2.1875 0 -3.78125 -0.4375q-1.59375 -0.4375 -2.9375 -1.59375q-1.34375 -1.15625 -2.59375 -3.125q-1.25 -1.96875 -2.8125 -5.09375l-20.125 -37.8125q-1.75 -3.375 -3.5625 -7.28125q-1.8125 -3.90625 -3.25 -7.59375l-0.125 0q0.25 4.5 0.375 8.96875q0.125 4.46875 0.125 9.21875l0 42.3125q0 0.625 -0.34375 1.125q-0.34375 0.5 -1.1875 0.84375q-0.84375 0.34375 -2.28125 0.53125q-1.4375 0.1875 -3.6875 0.1875q-2.1875 0 -3.625 -0.1875q-1.4375 -0.1875 -2.25 -0.53125q-0.8125 -0.34375 -1.125 -0.84375q-0.3125 -0.5 -0.3125 -1.125l0 -72.6875q0 -2.9375 1.71875 -4.40625q1.71875 -1.46875 4.21875 -1.46875l8.8125 0q2.375 0 4.0 0.40625q1.625 0.40625 2.90625 1.34375q1.28125 0.9375 2.40625 2.59375q1.125 1.65625 2.3125 4.09375l15.75 29.5625q1.375 2.6875 2.71875 5.28125q1.34375 2.59375 2.59375 5.1875q1.25 2.59375 2.4375 5.09375q1.1875 2.5 2.3125 5.0l0.0625 0q-0.1875 -4.375 -0.28125 -9.125q-0.09375 -4.75 -0.09375 -9.0625l0 -37.9375q0 -0.625 0.375 -1.125q0.375 -0.5 1.25 -0.875q0.875 -0.375 2.3125 -0.53125q1.4375 -0.15625 3.6875 -0.15625q2.125 0 3.5625 0.15625q1.4375 0.15625 2.21875 0.53125q0.78125 0.375 1.09375 0.875q0.3125 0.5 0.3125 1.125l0 72.6875zm65.5625 -0.6875q0 1.8125 -0.15625 3.03125q-0.15625 1.21875 -0.46875 1.96875q-0.3125 0.75 -0.78125 1.09375q-0.46875 0.34375 -1.03125 0.34375l-40.625 0q-2.0625 0 -3.46875 -1.21875q-1.40625 -1.21875 -1.40625 -3.96875l0 -70.5q0 -2.75 1.40625 -3.96875q1.40625 -1.21875 3.46875 -1.21875l40.375 0q0.5625 0 1.0 0.3125q0.4375 0.3125 0.75 1.09375q0.3125 0.78125 0.46875 2.0q0.15625 1.21875 0.15625 3.09375q0 1.75 -0.15625 2.96875q-0.15625 1.21875 -0.46875 1.96875q-0.3125 0.75 -0.75 1.09375q-0.4375 0.34375 -1.0 0.34375l-28.875 0l0 19.75l24.4375 0q0.5625 0 1.03125 0.34375q0.46875 0.34375 0.78125 1.0625q0.3125 0.71875 0.46875 1.9375q0.15625 1.21875 0.15625 2.96875q0 1.8125 -0.15625 3.0q-0.15625 1.1875 -0.46875 1.90625q-0.3125 0.71875 -0.78125 1.03125q-0.46875 0.3125 -1.03125 0.3125l-24.4375 0l0 22.8125l29.125 0q0.5625 0 1.03125 0.34375q0.46875 0.34375 0.78125 1.09375q0.3125 0.75 0.46875 1.96875q0.15625 1.21875 0.15625 3.03125zm74.5 4.3125q0 0.6875 -0.25 1.15625q-0.25 0.46875 -1.1875 0.78125q-0.9375 0.3125 -2.75 0.4375q-1.8125 0.125 -4.9375 0.125q-2.625 0 -4.1875 -0.125q-1.5625 -0.125 -2.46875 -0.46875q-0.90625 -0.34375 -1.28125 -0.875q-0.375 -0.53125 -0.625 -1.28125l-7.25 -18.0625q-1.3125 -3.0625 -2.5625 -5.4375q-1.25 -2.375 -2.78125 -3.96875q-1.53125 -1.59375 -3.53125 -2.40625q-2.0 -0.8125 -4.625 -0.8125l-5.125 0l0 30.8125q0 0.625 -0.40625 1.125q-0.40625 0.5 -1.34375 0.8125q-0.9375 0.3125 -2.5 0.5q-1.5625 0.1875 -4.0 0.1875q-2.375 0 -3.96875 -0.1875q-1.59375 -0.1875 -2.53125 -0.5q-0.9375 -0.3125 -1.3125 -0.8125q-0.375 -0.5 -0.375 -1.125l0 -73.4375q0 -2.75 1.40625 -3.96875q1.40625 -1.21875 3.46875 -1.21875l20.9375 0q3.1875 0 5.25 0.125q2.0625 0.125 3.75 0.3125q4.875 0.6875 8.78125 2.375q3.90625 1.6875 6.625 4.40625q2.71875 2.71875 4.15625 6.4375q1.4375 3.71875 1.4375 8.53125q0 4.0625 -1.03125 7.40625q-1.03125 3.34375 -3.03125 5.96875q-2.0 2.625 -4.9375 4.5625q-2.9375 1.9375 -6.6875 3.125q1.8125 0.875 3.40625 2.125q1.59375 1.25 3.0 3.03125q1.40625 1.78125 2.65625 4.0625q1.25 2.28125 2.4375 5.15625l6.8125 15.9375q0.9375 2.375 1.25 3.46875q0.3125 1.09375 0.3125 1.71875zm-21.1875 -54.875q0 -4.0 -1.8125 -6.75q-1.8125 -2.75 -5.9375 -3.875q-1.25 -0.3125 -2.84375 -0.5q-1.59375 -0.1875 -4.40625 -0.1875l-7.375 0l0 22.9375l8.375 0q3.5 0 6.125 -0.84375q2.625 -0.84375 4.375 -2.375q1.75 -1.53125 2.625 -3.65625q0.875 -2.125 0.875 -4.75z" fill-rule="nonzero"/><path fill="#4472c4" d="m117.33516 120.75861l0 0c0 -23.858719 16.119553 -43.200035 36.004044 -43.200035l0 0c9.548859 0 18.706635 4.5514145 25.458694 12.652992c6.752075 8.101585 10.545349 19.089676 10.545349 30.547043l0 0c0 23.858727 -16.119568 43.200035 -36.004044 43.200035l0 0c-19.884491 0 -36.004044 -19.341309 -36.004044 -43.200035z" fill-rule="evenodd"/><path fill="#ffc000" d="m56.627213 332.0821l0 0c0 -23.858734 16.11956 -43.200043 36.004044 -43.200043l0 0c9.548866 0 18.706635 4.551422 25.458702 12.652985c6.7520676 8.101593 10.5453415 19.089691 10.5453415 30.547058l0 0c0 23.858704 -16.11956 43.200012 -36.004044 43.200012l0 0c-19.884483 0 -36.004044 -19.341309 -36.004044 -43.200012z" fill-rule="evenodd"/><path fill="#ff0000" d="m297.35538 116.43861l0 0c0 -21.472847 14.507599 -38.880028 32.403625 -38.880028l0 0c8.593994 0 16.835999 4.0962753 22.912842 11.387695c6.076874 7.29142 9.490814 17.18071 9.490814 27.492332l0 0c0 21.472847 -14.507599 38.880043 -32.403656 38.880043l0 0c-17.896027 0 -32.403625 -17.407196 -32.403625 -38.880043z" fill-rule="evenodd"/><path fill="#ed7d31" d="m197.11974 211.14607l0 0c0 -29.823395 20.14946 -54.000046 45.005066 -54.000046l0 0c11.936081 0 23.383286 5.68927 31.82338 15.816254c8.440094 10.126968 13.181671 23.862091 13.181671 38.183792l0 0c0 29.823395 -20.149445 54.000046 -45.00505 54.000046l0 0c-24.855606 0 -45.005066 -24.176651 -45.005066 -54.000046z" fill-rule="evenodd"/><path fill="#70ad47" d="m320.36517 283.44894l0 0c0 -23.858704 16.119537 -43.200027 36.00403 -43.200027l0 0c9.548859 0 18.706635 4.551422 25.45871 12.653c6.752075 8.101593 10.545349 19.089691 10.545349 30.547028l0 0c0 23.858734 -16.119568 43.200043 -36.00406 43.200043l0 0c-19.884491 0 -36.00403 -19.341309 -36.00403 -43.200043z" fill-rule="evenodd"/><path fill="#000000" fill-opacity="0.0" d="m178.7979 151.30565l31.538986 21.685059" fill-rule="evenodd"/><path stroke="#000000" stroke-width="1.0" stroke-miterlimit="800.0" stroke-linecap="butt" d="m178.7979 151.30565l31.538986 21.685059" fill-rule="evenodd"/><path fill="#000000" fill-opacity="0.0" d="m306.8462 143.93094l-32.95645 29.055145" fill-rule="evenodd"/><path stroke="#a5a5a5" stroke-width="1.0" stroke-miterlimit="800.0" stroke-linecap="butt" d="m306.8462 143.93094l-32.95645 29.055145" fill-rule="evenodd"/><path fill="#000000" fill-opacity="0.0" d="m92.631256 288.88205l35.200806 -137.62216" fill-rule="evenodd"/><path stroke="#a5a5a5" stroke-width="1.0" stroke-miterlimit="800.0" stroke-linecap="butt" d="m92.631256 288.88205l35.200806 -137.62216" fill-rule="evenodd"/><path fill="#000000" fill-opacity="0.0" d="m210.30142 249.32986l-92.25446 52.15753" fill-rule="evenodd"/><path stroke="#a5a5a5" stroke-width="1.0" stroke-miterlimit="800.0" stroke-linecap="butt" d="m210.30142 249.32986l-92.25446 52.15753" fill-rule="evenodd"/><path fill="#000000" fill-opacity="0.0" d="m329.759 155.31865l26.57779 84.897705" fill-rule="evenodd"/><path stroke="#a5a5a5" stroke-width="1.0" stroke-miterlimit="800.0" stroke-linecap="butt" d="m329.759 155.31865l26.57779 84.897705" fill-rule="evenodd"/><path fill="#000000" fill-opacity="0.0" d="m128.6353 332.0821l202.22743 -18.141754" fill-rule="evenodd"/><path stroke="#a5a5a5" stroke-width="1.0" stroke-miterlimit="800.0" stroke-linecap="butt" d="m128.6353 332.0821l202.22743 -18.141754" fill-rule="evenodd"/><path fill="#000000" fill-opacity="0.0" d="m287.12985 211.14607l43.823822 41.811066" fill-rule="evenodd"/><path stroke="#a5a5a5" stroke-width="1.0" stroke-miterlimit="800.0" stroke-linecap="butt" d="m287.12985 211.14607l43.823822 41.811066" fill-rule="evenodd"/><path fill="#acb8ca" d="m100.5939 408.7424l46.105957 0l0 32.039093l-46.105957 0z" fill-rule="evenodd"/><path fill="#acb8ca" d="m156.0395 408.15222l46.105972 0l0 32.039093l-46.105972 0z" fill-rule="evenodd"/><path fill="#bc8fdd" d="m211.98714 408.15222l46.105972 0l0 32.039093l-46.105972 0z" fill-rule="evenodd"/><path fill="#bc8fdd" d="m266.8681 408.11826l46.105988 0l0 32.039093l-46.105988 0z" fill-rule="evenodd"/><path fill="#acb8ca" d="m324.30566 408.15222l46.105957 0l0 32.039093l-46.105957 0z" fill-rule="evenodd"/><path fill="#000000" fill-opacity="0.0" d="m208.84593 400.86758l110.19939 0l0 46.137665l-110.19939 0z" fill-rule="evenodd"/><path stroke="#7030a0" stroke-width="1.0" stroke-miterlimit="800.0" stroke-linecap="butt" d="m208.84593 400.86758l110.19939 0l0 46.137665l-110.19939 0z" fill-rule="evenodd"/><path fill="#acb8ca" d="m379.8434 407.73938l46.105957 0l0 32.039093l-46.105957 0z" fill-rule="evenodd"/><path fill="#acb8ca" d="m433.7574 407.73938l46.105988 0l0 32.039093l-46.105988 0z" fill-rule="evenodd"/><path fill="#9cc2e5" d="m489.29514 407.32635l46.105988 0l0 32.039093l-46.105988 0z" fill-rule="evenodd"/><path fill="#9cc2e5" d="m544.23193 407.32635l46.105957 0l0 32.039093l-46.105957 0z" fill-rule="evenodd"/><path fill="#9cc2e5" d="m599.76965 406.91354l46.106018 0l0 32.039062l-46.106018 0z" fill-rule="evenodd"/><path fill="#000000" fill-opacity="0.0" d="m484.66464 399.8306l165.34177 0l0 46.137695l-165.34177 0z" fill-rule="evenodd"/><path stroke="#5b9bd5" stroke-width="1.0" stroke-miterlimit="800.0" stroke-linecap="butt" d="m484.66464 399.8306l165.34177 0l0 46.137695l-165.34177 0z" fill-rule="evenodd"/><path fill="#acb8ca" d="m653.84546 406.00223l46.106018 0l0 32.039093l-46.106018 0z" fill-rule="evenodd"/><path fill="#acb8ca" d="m709.38324 405.58923l46.105957 0l0 32.039062l-46.105957 0z" fill-rule="evenodd"/><path fill="#acb8ca" d="m761.4974 405.58923l46.105957 0l0 32.039062l-46.105957 0z" fill-rule="evenodd"/><path fill="#acb8ca" d="m817.0351 405.1764l46.105957 0l0 32.039093l-46.105957 0z" fill-rule="evenodd"/></g></svg>